<?xml version="1.0" encoding="UTF-8" standalone="no"?>
<!-- Created with Inkscape (http://www.inkscape.org/) -->

<svg
   width="111.98255mm"
   height="92.082611mm"
   viewBox="0 0 111.98255 92.082611"
   version="1.1"
   id="svg1"
   inkscape:version="1.4.2 (ebf0e940d0, 2025-05-08)"
   sodipodi:docname="icon.svg"
   xmlns:inkscape="http://www.inkscape.org/namespaces/inkscape"
   xmlns:sodipodi="http://sodipodi.sourceforge.net/DTD/sodipodi-0.dtd"
   xmlns="http://www.w3.org/2000/svg"
   xmlns:svg="http://www.w3.org/2000/svg">
  <sodipodi:namedview
     id="namedview1"
     pagecolor="#505050"
     bordercolor="#eeeeee"
     borderopacity="1"
     inkscape:showpageshadow="0"
     inkscape:pageopacity="0"
     inkscape:pagecheckerboard="0"
     inkscape:deskcolor="#505050"
     inkscape:document-units="mm"
     inkscape:zoom="0.7500982"
     inkscape:cx="226.63699"
     inkscape:cy="54.65951"
     inkscape:window-width="1920"
     inkscape:window-height="1051"
     inkscape:window-x="0"
     inkscape:window-y="1080"
     inkscape:window-maximized="1"
     inkscape:current-layer="layer1" />
  <defs
     id="defs1" />
  <g
     inkscape:label="Layer 1"
     inkscape:groupmode="layer"
     id="layer1"
     transform="translate(-44.97917,-134.14374)">
    <g
       id="g109"
       style="fill:#000000"
       transform="translate(-201.04428,-140.65052)">
      <path
         id="path106"
         style="font-variation-settings:'wght' 500;fill:#000000;fill-opacity:1;stroke-width:0.535838"
         d="m 271.69032,300.88528 a 25.666382,25.666382 0 0 0 -25.66687,25.66687 25.666382,25.666382 0 0 0 25.66687,25.66594 25.666382,25.666382 0 0 0 25.66593,-25.66594 25.666382,25.666382 0 0 0 -25.66593,-25.66687 z m 0,7.77604 a 17.890831,17.890831 0 0 1 17.89083,17.89083 17.890831,17.890831 0 0 1 -17.89083,17.89083 17.890831,17.890831 0 0 1 -17.89083,-17.89083 17.890831,17.890831 0 0 1 17.89083,-17.89083 z" />
      <path
         id="path107"
         style="font-variation-settings:'wght' 500;fill:#000000;fill-opacity:1;stroke:none;stroke-width:1.7752;stroke-dasharray:none;paint-order:normal"
         d="m 302.00537,298.70182 c -3.66299,0.214 -7.55069,0.64096 -10.71024,2.6346 -1.42629,1.37619 0.002,3.39256 1.2111,4.36481 5.35022,5.33186 8.53831,12.76995 8.55618,20.33894 0.28499,5.68638 -1.48081,11.31432 -4.36553,16.16874 -0.78962,1.35835 -0.27231,3.49283 1.52535,3.59833 4.57436,0.73618 9.93503,0.10342 14.25089,-2.18212 1.69226,-1.11731 0.55288,-3.37309 -0.70191,-4.34028 -5.95888,-5.78857 -9.32313,-14.18101 -8.77344,-22.49705 0.0539,-5.13004 1.87591,-10.06115 4.41964,-14.45449 0.72039,-1.3717 0.0245,-3.33858 -1.67851,-3.39925 -1.23744,-0.18531 -2.48168,-0.28511 -3.73353,-0.23223 z" />
      <path
         id="path108"
         style="font-variation-settings:'wght' 500;fill:#000000;fill-opacity:1;stroke-width:0.535838"
         d="m 332.34006,292.52701 a 25.666382,25.666382 0 0 0 -25.66687,25.66687 25.666382,25.666382 0 0 0 25.66687,25.66594 25.666382,25.666382 0 0 0 25.66594,-25.66594 25.666382,25.666382 0 0 0 -25.66594,-25.66687 z m 0,7.77604 a 17.890831,17.890831 0 0 1 17.89083,17.89083 17.890831,17.890831 0 0 1 -17.89083,17.89083 17.890831,17.890831 0 0 1 -17.89083,-17.89083 17.890831,17.890831 0 0 1 17.89083,-17.89083 z" />
      <path
         id="path109"
         style="baseline-shift:baseline;display:inline;overflow:visible;vector-effect:none;fill:#000000;fill-opacity:1;stroke-width:4.84013;stroke-linecap:round;stroke-linejoin:round;stroke-miterlimit:4.5;enable-background:accumulate;stop-color:#000000"
         d="m 257.24713,274.79478 c -1.31636,0 -3.54,-0.042 -4.64963,0.63498 -0.59426,0.36257 -1.09482,0.86354 -1.45706,1.458 -0.67646,1.11007 -0.63404,3.33419 -0.63404,4.65055 v 18.57887 c 0,1.31635 0.84855,1.73351 1.95704,1.02414 1.44384,-0.92397 2.96344,-1.73062 4.53695,-2.4086 1.20861,-0.52077 2.22239,-1.92645 2.22239,-3.24281 v -9.60459 c 0,-1.31635 1.06711,-2.38347 2.38347,-2.38347 h 83.31862 c 1.31635,0 2.38346,1.06712 2.38346,2.38347 v 1.06325 c 0,1.31636 1.02402,2.69071 2.24009,3.19346 1.59177,0.65806 3.10943,1.46651 4.53974,2.40394 1.10064,0.72135 1.93656,0.32107 1.93656,-0.99528 v -10.01238 c 0,-1.31636 0.0432,-3.54052 -0.63311,-4.65055 -0.36222,-0.59446 -0.86284,-1.09541 -1.45708,-1.458 -1.10967,-0.67708 -3.33419,-0.63498 -4.65052,-0.63498 z m 97.76647,67.45278 c -0.2774,0.009 -0.59804,0.12125 -0.94407,0.34356 -1.44472,0.928 -2.96483,1.73933 -4.53974,2.4207 -1.20782,0.52256 -2.22146,1.92925 -2.22146,3.2456 v 7.53116 c 0,1.31636 -1.06711,2.38347 -2.38344,2.38347 h -83.31864 c -1.31636,0 -2.38347,-1.06711 -2.38347,-2.38347 0,-0.75434 -1.02471,-1.67267 -2.241,-2.1749 -1.59241,-0.6575 -3.10918,-1.46517 -4.53882,-2.40204 -1.10068,-0.72128 -1.93656,-0.32108 -1.93656,0.99528 v 7.93896 c 0,1.31636 -0.0389,3.54061 0.64056,4.64867 0.3617,0.58983 0.85992,1.08648 1.45054,1.44685 1.10969,0.6771 3.33327,0.63496 4.64963,0.63496 h 92.03688 c 1.31633,0 3.53995,0.042 4.6496,-0.63496 0.59066,-0.36037 1.08974,-0.85704 1.45148,-1.44685 0.67964,-1.10812 0.63963,-3.33231 0.63963,-4.64867 V 343.6125 c 0,-0.90499 -0.40082,-1.38471 -1.01112,-1.36491 z"
         sodipodi:nodetypes="sssssssssssssssssssssssssssssssssssssssssss" />
    </g>
  </g>
</svg>
